# xmcd
#
# Track frame offsets:
# 150
# 23201
# 42533
# 60030
# 74969
# 91383
# 105033
# 125098
# 142874
# 157587
# 171259
# 188935
# 203033
# 216954
#
# Disc length: 3061 seconds
#
#
# Revision: 0
# Processed by: cddbd v1.5.2PL0 Copyright (c) Steve Scherf et al.
# Submitted via: FreeRIP 2.942 
#
DISCID=bf0bf30e
DTITLE=Glenn Cardier - Exiles From Eden
DYEAR=2008
DGENRE=Folk/Rock
TTITLE0=Exiles From  Eden
TTITLE1=Angelica
TTITLE2=Cold Out There
TTITLE3=Watch Out (Love Gonna Getcha)
TTITLE4=Invisible Ink
TTITLE5=Drive That Car
TTITLE6=Life Of The Party
TTITLE7=Flash Guitar
TTITLE8=Water Into Wine
TTITLE9=Uncharted Waters
TTITLE10=Face The Day
TTITLE11=She's The One for Me
TTITLE12=Catch Me If I Fall
TTITLE13=All's Well (That Ends Well)
EXTD=a fantastique product GC003
EXTT0=
EXTT1=
EXTT2=
EXTT3=
EXTT4=
EXTT5=
EXTT6=
EXTT7=
EXTT8=
EXTT9=
EXTT10=
EXTT11=
EXTT12=
EXTT13=
PLAYORDER=
